# This file uses centimeters as units for non-parametric coordinates.

mtllib rebadarena.mtl
g default
v 10.963334 3.668182 -3.562211
v 10.558567 3.668182 -3.430687
v 9.325966 3.668182 -6.775717
v 8.981657 3.668182 -6.525547
v 6.775718 3.668182 -9.325964
v 6.525553 3.668182 -8.981647
v 10.963334 5.094270 -3.562211
v 10.558567 5.094270 -3.430687
v 9.325966 5.094270 -6.775717
v 8.981657 5.094270 -6.525547
v 10.963334 6.685528 -3.562211
v 10.558567 6.685528 -3.430687
v 9.325966 6.685528 -6.775718
v 8.981657 6.685528 -6.525548
v 6.775718 6.685528 -9.325964
v 6.525553 6.685527 -8.981647
v 10.963334 8.386881 -3.562211
v 10.558567 8.386881 -3.430687
v 9.325966 8.386881 -6.775718
v 8.981657 8.386881 -6.525548
v 6.775718 8.386881 -9.325964
v 6.525553 8.386881 -8.981646
v 10.558567 2.876616 -3.430687
v 10.042408 2.876616 -3.262975
v 8.981657 2.876616 -6.525547
v 8.542595 2.876616 -6.206531
v 6.525553 2.876616 -8.981647
v 6.206536 2.876616 -8.542554
v 10.042408 2.446785 -3.262975
v 9.456489 2.446785 -3.072586
v 8.542595 2.446785 -6.206531
v 8.044166 2.446785 -5.844413
v 6.206536 2.446785 -8.542554
v 5.844423 2.446785 -8.044161
v 9.456489 2.520478 -3.072586
v 8.732141 2.520478 -2.837241
v 8.044166 2.520478 -5.844413
v 7.427995 2.520478 -5.396757
v 5.844423 2.520478 -8.044161
v 5.396762 2.520478 -7.427994
v 8.732141 2.159235 -2.837241
v 8.128289 2.159235 -2.641036
v 7.427995 2.159235 -5.396757
v 6.914347 2.159235 -5.023554
v 5.396762 2.159235 -7.427994
v 5.023563 2.159235 -6.914340
v 8.128289 2.249761 -2.641036
v 7.400524 2.249761 -2.404568
v 6.914347 2.249761 -5.023554
v 6.295264 2.249761 -4.573771
v 5.023563 2.249761 -6.914340
v 4.573793 2.249761 -6.295253
v 7.400524 1.842468 -2.404568
v 6.857322 1.842468 -2.228067
v 6.295264 1.842468 -4.573771
v 5.833180 1.842468 -4.238032
v 4.573793 1.842468 -6.295253
v 4.238069 1.842468 -5.833166
v 6.857322 0.944334 -2.228067
v 5.833180 0.944334 -4.238032
v 4.238069 0.944334 -5.833166
vt 0.470357 0.855373
vt 0.465604 0.551309
vt 0.086125 0.637531
vt 0.197820 0.563008
vt 0.105994 0.573081
vt 0.127063 0.522794
vt 0.461679 0.908810
vt 0.418723 0.625536
vt 0.052509 0.694576
vt 0.196959 0.631448
vt 0.442845 0.931228
vt 0.375312 0.700368
vt 0.040285 0.740417
vt 0.263321 0.803664
vt 0.079509 0.865440
vt 0.102531 0.891615
vt 0.419423 0.951099
vt 0.371737 0.803700
vt 0.370114 0.982860
vt 0.324441 0.887195
vt 0.282719 0.951008
vt 0.191681 0.926399
vt 0.428490 0.467315
vt 0.389100 0.402755
vt 0.285732 0.476670
vt 0.292588 0.392165
vt 0.192794 0.443936
vt 0.192326 0.389458
vt 0.388465 0.359543
vt 0.382813 0.288219
vt 0.292724 0.338151
vt 0.296799 0.271901
vt 0.204538 0.325956
vt 0.212951 0.252716
vt 0.352174 0.193907
vt 0.345657 0.128980
vt 0.294463 0.192472
vt 0.295240 0.146482
vt 0.236478 0.192163
vt 0.246969 0.130748
vt 0.342342 0.098671
vt 0.343151 0.080783
vt 0.295333 0.119633
vt 0.297662 0.093632
vt 0.251975 0.104271
vt 0.251391 0.076954
vt 0.336961 0.054873
vt 0.333862 0.046395
vt 0.295768 0.072795
vt 0.296932 0.058765
vt 0.252504 0.055867
vt 0.256531 0.039367
vt 0.326758 0.033380
vt 0.321287 0.029026
vt 0.296932 0.047179
vt 0.296094 0.026933
vt 0.264108 0.033302
vt 0.273129 0.027903
vt 0.513117 0.525475
vt 0.973786 0.495870
vt 0.973786 0.956037
vt 0.513117 0.986144
vt 0.509335 0.021715
vt 0.970004 0.052895
vt 0.970004 0.455606
vt 0.509335 0.485713
vn 0.000000 1.000000 0.000001
vn 0.000000 1.000000 0.000001
vn 0.000000 1.000000 0.000001
vn 0.000000 1.000000 0.000001
vn 0.000000 1.000000 0.000000
vn 0.000000 1.000000 0.000000
vn 0.000000 1.000000 0.000000
vn 0.000000 1.000000 0.000000
vn 0.000000 1.000000 0.000000
vn 0.000000 1.000000 0.000000
vn 0.000000 1.000000 0.000000
vn 0.000000 1.000000 0.000000
vn 0.000000 1.000000 0.000000
vn -0.000000 1.000000 0.000000
vn -0.000000 1.000000 0.000000
vn 0.000000 1.000000 0.000000
vn -0.000000 1.000000 0.000000
vn -0.000000 1.000000 0.000000
vn 0.000000 1.000000 -0.000000
vn 0.000000 1.000000 0.000000
vn 0.000000 1.000000 0.000000
vn 0.000000 1.000000 -0.000000
vn 0.000000 1.000000 0.000000
vn 0.000000 1.000000 0.000000
vn 0.000000 1.000000 -0.000000
vn 0.000000 1.000000 -0.000000
vn 0.000000 1.000000 -0.000000
vn 0.000000 1.000000 -0.000000
vn 0.000000 1.000000 0.000000
vn 0.000000 1.000000 0.000000
vn 0.000000 1.000000 0.000000
vn 0.000000 1.000000 0.000000
vn 0.000000 1.000000 0.000000
vn 0.000000 1.000000 0.000000
vn 0.000000 1.000000 0.000000
vn 0.000000 1.000000 0.000000
vn 0.000000 1.000000 0.000000
vn 0.000000 1.000000 -0.000000
vn 0.000000 1.000000 -0.000000
vn 0.000000 1.000000 0.000000
vn 0.000000 1.000000 -0.000000
vn 0.000000 1.000000 -0.000000
vn -0.891006 0.000000 0.453991
vn -0.891006 0.000000 0.453991
vn -0.891007 0.000000 0.453991
vn -0.891007 0.000000 0.453991
vn -0.891007 -0.000000 0.453990
vn -0.837614 -0.000000 0.546262
vn -0.891007 -0.000000 0.453990
vn -0.809017 -0.000000 0.587786
vn -0.707106 -0.000000 0.707108
vn -0.707106 -0.000000 0.707108
vn 0.000000 1.000000 0.000000
vn 0.000000 1.000000 0.000000
vn 0.000000 1.000000 0.000000
vn 0.000000 1.000000 0.000000
vn -0.587808 -0.000000 -0.809001
vn -0.587808 -0.000000 -0.809001
vn -0.587808 -0.000000 -0.809001
vn -0.587808 -0.000000 -0.809001
vn -0.587809 -0.000000 -0.809000
vn -0.587809 -0.000000 -0.809000
vn -0.587809 -0.000000 -0.809000
vn -0.587809 -0.000000 -0.809000
vn 0.000001 -1.000000 -0.000000
vn 0.000001 -1.000000 -0.000000
vn 0.000001 -1.000000 -0.000000
vn 0.000001 -1.000000 -0.000000
vn 0.309032 0.000000 0.951052
vn 0.309032 0.000000 0.951052
vn 0.309032 0.000000 0.951052
vn 0.309032 0.000000 0.951052
vn 0.309032 0.000000 0.951052
vn 0.309032 0.000000 0.951052
vn 0.309032 0.000000 0.951052
vn 0.309032 0.000000 0.951052
vn 0.309032 0.000000 0.951051
vn 0.309032 0.000000 0.951051
vn 0.309032 0.000000 0.951051
vn 0.309032 0.000000 0.951051
vn -0.891004 0.000000 0.453995
vn -0.891004 0.000000 0.453995
vn -0.891004 0.000000 0.453995
vn -0.891004 0.000000 0.453995
vn -0.707112 0.000000 0.707102
vn -0.707112 0.000000 0.707102
vn -0.707112 0.000000 0.707102
vn -0.707112 0.000000 0.707102
vn -0.707109 0.000000 0.707105
vn -0.707109 0.000000 0.707105
vn -0.707109 0.000000 0.707105
vn -0.707109 0.000000 0.707105
vn -0.891007 0.000000 0.453989
vn -0.891007 0.000000 0.453989
vn -0.891007 0.000000 0.453989
vn -0.891007 0.000000 0.453989
vn -0.707107 0.000000 0.707106
vn -0.707107 0.000000 0.707106
vn -0.707107 0.000000 0.707106
vn -0.707107 0.000000 0.707106
vn -0.891005 0.000000 0.453993
vn -0.891005 0.000000 0.453993
vn -0.891005 0.000000 0.453993
vn -0.891005 0.000000 0.453993
vn -0.891007 0.000000 0.453990
vn -0.891007 0.000000 0.453990
vn -0.891007 0.000000 0.453990
vn -0.891007 0.000000 0.453990
vn -0.707101 0.000000 0.707112
vn -0.707101 0.000000 0.707112
vn -0.707101 0.000000 0.707112
vn -0.707101 0.000000 0.707112
vn 0.891006 0.000000 -0.453992
vn 0.891006 0.000000 -0.453992
vn 0.891006 0.000000 -0.453992
vn 0.891006 0.000000 -0.453992
vn 0.707106 0.000000 -0.707107
vn 0.707106 0.000000 -0.707107
vn 0.707106 0.000000 -0.707107
vn 0.707106 0.000000 -0.707107
vn 0.891008 0.000000 -0.453987
vn 0.891008 0.000000 -0.453987
vn 0.891008 0.000000 -0.453987
vn 0.891008 0.000000 -0.453987
vn 0.707107 0.000000 -0.707107
vn 0.707107 0.000000 -0.707107
vn 0.707107 0.000000 -0.707107
vn 0.707107 0.000000 -0.707107
vn -0.707106 0.000000 0.707107
vn -0.707106 0.000000 0.707107
vn -0.707106 0.000000 0.707107
vn -0.707106 0.000000 0.707107
vn -0.891007 0.000000 0.453990
vn -0.891007 0.000000 0.453990
vn -0.891007 0.000000 0.453990
vn -0.891007 0.000000 0.453990
s 1
g pCylinder1
usemtl initialShadingGroup
f 17/17/1 19/19/2 20/20/3 18/18/4
f 19/19/2 21/21/5 22/22/6 20/20/3
s 2
f 23/23/7 25/25/8 26/26/9 24/24/10
f 25/25/8 27/27/11 28/28/12 26/26/9
s 3
f 29/29/13 31/31/14 32/32/15 30/30/16
f 31/31/14 33/33/17 34/34/18 32/32/15
s 4
f 35/35/19 37/37/20 38/38/21 36/36/22
f 37/37/20 39/39/23 40/40/24 38/38/21
s 5
f 41/41/25 43/43/26 44/44/27 42/42/28
f 43/43/26 45/45/29 46/46/30 44/44/27
s 6
f 47/47/31 49/49/32 50/50/33 48/48/34
f 49/49/32 51/51/35 52/52/36 50/50/33
s 7
f 53/53/37 55/55/38 56/56/39 54/54/40
f 55/55/38 57/57/41 58/58/42 56/56/39
s 8
f 4/4/43 2/2/44 8/8/45 10/10/46
f 10/10/46 8/8/45 12/12/47 14/14/48
f 14/14/48 12/12/47 18/18/49 20/20/50
f 16/16/51 14/14/48 20/20/50 22/22/52
s off
f 3/3/53 5/5/54 6/6/55 4/4/56
f 9/9/57 3/3/58 4/4/59 10/10/60
f 13/13/61 9/9/62 10/10/63 14/14/64
f 15/15/65 13/13/66 14/14/67 16/16/68
f 7/7/69 11/11/70 12/12/71 8/8/72
f 11/11/73 17/17/74 18/18/75 12/12/76
f 1/1/77 7/7/78 8/8/79 2/2/80
f 54/59/81 56/60/82 60/61/83 59/62/84
f 56/63/85 58/64/86 61/65/87 60/66/88
f 50/50/89 52/52/90 57/57/91 55/55/92
f 48/48/93 50/50/94 55/55/95 53/53/96
f 38/38/97 40/40/98 45/45/99 43/43/100
f 36/36/101 38/38/102 43/43/103 41/41/104
f 24/24/105 26/26/106 31/31/107 29/29/108
f 26/26/109 28/28/110 33/33/111 31/31/112
f 30/30/113 32/32/114 37/37/115 35/35/116
f 32/32/117 34/34/118 39/39/119 37/37/120
f 42/42/121 44/44/122 49/49/123 47/47/124
f 44/44/125 46/46/126 51/51/127 49/49/128
f 4/4/129 6/6/130 27/27/131 25/25/132
f 2/2/133 4/4/134 25/25/135 23/23/136
